<svg width="61" height="61" viewBox="0 0 61 61" fill="none" xmlns="http://www.w3.org/2000/svg">
<path d="M52.4215 42.5684H7.92099C5.6942 42.5684 3.8891 40.7642 3.8891 38.5385V7.8421C3.8891 5.61637 5.6942 3.81189 7.92099 3.81189H52.4213C54.6481 3.81189 56.4532 5.61637 56.4532 7.8421V38.5385C56.4534 40.7642 54.6483 42.5684 52.4215 42.5684Z" fill="white"/>
<path d="M52.4217 42.9218H7.92117C5.50321 42.9218 3.53571 40.9555 3.53571 38.5384V7.84209C3.53571 5.42505 5.50321 3.45871 7.92117 3.45871H52.4214C54.8396 3.45871 56.8069 5.42505 56.8069 7.84209V38.5384C56.8071 40.9555 54.8396 42.9218 52.4217 42.9218ZM7.92117 4.16528C5.89308 4.16528 4.24285 5.8145 4.24285 7.84185V38.5384C4.24285 40.5658 5.89308 42.215 7.92117 42.215H52.4214C54.4495 42.215 56.0998 40.5656 56.0998 38.5384V7.84209C56.0998 5.81473 54.4495 4.16552 52.4214 4.16552H7.92117V4.16528Z" fill="black"/>
<path d="M20.3187 6.7569H9.67153C8.11982 6.7569 6.86182 8.01431 6.86182 9.56527V36.815C6.86182 38.366 8.11982 39.6234 9.67153 39.6234H50.6712C52.2229 39.6234 53.4809 38.366 53.4809 36.815V9.56527C53.4809 8.01431 52.2229 6.7569 50.6712 6.7569H23.524H20.3187Z" fill="white"/>
<path fill-rule="evenodd" clip-rule="evenodd" d="M50.6711 39.9768H9.67146C7.92741 39.9768 6.50818 38.5585 6.50818 36.815V9.56528C6.50818 7.82183 7.92741 6.4035 9.67146 6.4035H20.3187H50.6711C52.4152 6.4035 53.8344 7.82183 53.8344 9.56528V36.815C53.8344 38.5585 52.4152 39.9768 50.6711 39.9768ZM9.67146 7.11031H20.3187H50.6711C52.0253 7.11031 53.1273 8.21151 53.1273 9.56528V36.815C53.1273 38.1688 52.0253 39.27 50.6711 39.27H9.67146C8.31729 39.27 7.21532 38.1688 7.21532 36.815V9.56528C7.21532 8.21151 8.31729 7.11031 9.67146 7.11031Z" fill="black"/>
<path d="M33.5451 42.5684H26.7977V50.9542H33.5451V42.5684Z" fill="white"/>
<path d="M33.5451 51.3078H26.7978C26.6026 51.3078 26.4442 51.1497 26.4442 50.9544V42.5686C26.4442 42.3733 26.6026 42.2152 26.7978 42.2152H33.5451C33.7403 42.2152 33.8987 42.3733 33.8987 42.5686V50.9544C33.8987 51.1495 33.7405 51.3078 33.5451 51.3078ZM27.1516 50.601H33.1918V42.922H27.1516V50.601Z" fill="black"/>
<path d="M31.9279 56.469H40.473C40.473 53.4233 38.003 50.9542 34.9557 50.9542H25.3873C22.3402 50.9542 19.8699 53.4233 19.8699 56.469H28.729H31.9279Z" fill="white"/>
<path fill-rule="evenodd" clip-rule="evenodd" d="M40.4728 56.8224H28.7291H19.87C19.6748 56.8224 19.5164 56.6643 19.5164 56.469C19.5164 53.2334 22.1501 50.6008 25.3871 50.6008H34.9557C38.1928 50.6008 40.8264 53.2332 40.8264 56.469C40.8264 56.6643 40.668 56.8224 40.4728 56.8224ZM40.1072 56.1156H28.7291H20.2356C20.4178 53.4337 22.6587 51.3076 25.3871 51.3076H34.9557C37.6841 51.3076 39.925 53.4339 40.1072 56.1156Z" fill="black"/>
<path d="M50.6715 7.11032H47.1358C48.4888 7.11032 49.5919 8.21058 49.5919 9.5653V36.815C49.5919 38.1697 48.4888 39.27 47.1358 39.27H50.6715C52.0245 39.27 53.1277 38.1697 53.1277 36.815V9.5653C53.1277 8.21058 52.0245 7.11032 50.6715 7.11032Z" fill="white"/>
<path d="M30.1714 35.5863C37.006 35.5863 42.5464 30.0485 42.5464 23.2172C42.5464 16.386 37.006 10.8481 30.1714 10.8481C23.3369 10.8481 17.7964 16.386 17.7964 23.2172C17.7964 30.0485 23.3369 35.5863 30.1714 35.5863Z" fill="#75E8E7"/>
<path d="M30.1714 35.9397C23.153 35.9397 17.4429 30.2325 17.4429 23.2172C17.4429 16.2019 23.153 10.4947 30.1714 10.4947C37.1898 10.4947 42.9 16.2019 42.9 23.2172C42.9 30.2325 37.1898 35.9397 30.1714 35.9397ZM30.1714 11.2015C23.5429 11.2015 18.15 16.5916 18.15 23.2172C18.15 29.8428 23.5429 35.2329 30.1714 35.2329C36.8 35.2329 42.1929 29.8428 42.1929 23.2172C42.1929 16.5916 36.8 11.2015 30.1714 11.2015Z" fill="black"/>
<path d="M39.1986 22.1785L26.5087 14.8555C25.7087 14.3939 24.7088 14.9709 24.7088 15.8943V30.5405C24.7088 31.4638 25.7087 32.0408 26.5087 31.5792L39.1989 24.256C39.9986 23.7942 39.9986 22.6402 39.1986 22.1785Z" fill="white"/>
<path d="M25.9081 32.0957C25.6413 32.0957 25.3745 32.0255 25.1312 31.885C24.645 31.6044 24.3546 31.1017 24.3546 30.5405V15.8943C24.3546 15.3328 24.645 14.8303 25.1312 14.5494C25.6177 14.2688 26.1983 14.2686 26.6851 14.5494L39.3752 21.8727C39.8615 22.1533 40.1519 22.656 40.1519 23.2172C40.1519 23.7784 39.8617 24.2812 39.3752 24.5618L26.6851 31.885C26.4418 32.0255 26.175 32.0957 25.9081 32.0957ZM25.9081 15.0468C25.7627 15.0468 25.6175 15.0852 25.4848 15.1615C25.2199 15.3144 25.0617 15.5884 25.0617 15.894V30.5402C25.0617 30.846 25.2199 31.1198 25.4848 31.2727C25.75 31.4256 26.0663 31.4256 26.3315 31.2727L39.0216 23.9497C39.2866 23.7968 39.4447 23.5228 39.4447 23.217C39.4447 22.9112 39.2866 22.6374 39.0216 22.4843L26.3315 15.1615C26.1988 15.085 26.0536 15.0468 25.9081 15.0468Z" fill="black"/>
<path d="M14.4766 13.312H12.0721C11.6648 13.312 11.3345 12.982 11.3345 12.5749V10.1717C11.3345 9.76459 11.6648 9.43451 12.0721 9.43451H14.4766C14.8839 9.43451 15.2142 9.76459 15.2142 10.1717V12.5751C15.2142 12.9822 14.8839 13.312 14.4766 13.312Z" fill="#75E8E7"/>
<path d="M14.4764 13.6655H12.0718C11.4703 13.6655 10.981 13.1761 10.981 12.5749V10.1715C10.981 9.57023 11.4703 9.08112 12.0718 9.08112H14.4764C15.0781 9.08112 15.5675 9.57023 15.5675 10.1715V12.5751C15.5675 13.1764 15.0781 13.6655 14.4764 13.6655ZM12.0718 9.78792C11.8602 9.78792 11.6881 9.95991 11.6881 10.1715V12.5751C11.6881 12.7867 11.8602 12.9589 12.0718 12.9589H14.4764C14.688 12.9589 14.8603 12.7867 14.8603 12.5751V10.1715C14.8603 9.95991 14.6883 9.78792 14.4764 9.78792H12.0718Z" fill="black"/>
<path d="M14.4766 19.3225H12.0721C11.6648 19.3225 11.3345 18.9924 11.3345 18.5853V16.1819C11.3345 15.7748 11.6648 15.4447 12.0721 15.4447H14.4766C14.8839 15.4447 15.2142 15.7748 15.2142 16.1819V18.5853C15.2142 18.9924 14.8839 19.3225 14.4766 19.3225Z" fill="#75E8E7"/>
<path d="M14.4764 19.6759H12.0718C11.4703 19.6759 10.981 19.1868 10.981 18.5853V16.1819C10.981 15.5807 11.4703 15.0913 12.0718 15.0913H14.4764C15.0781 15.0913 15.5675 15.5807 15.5675 16.1819V18.5853C15.5675 19.1868 15.0781 19.6759 14.4764 19.6759ZM12.0718 15.7981C11.8602 15.7981 11.6881 15.9704 11.6881 16.1819V18.5853C11.6881 18.7969 11.8602 18.9691 12.0718 18.9691H14.4764C14.688 18.9691 14.8603 18.7969 14.8603 18.5853V16.1819C14.8603 15.9704 14.6883 15.7981 14.4764 15.7981H12.0718Z" fill="black"/>
<path d="M14.4766 25.3327H12.0721C11.6648 25.3327 11.3345 25.0026 11.3345 24.5955V22.1921C11.3345 21.785 11.6648 21.4549 12.0721 21.4549H14.4766C14.8839 21.4549 15.2142 21.785 15.2142 22.1921V24.5955C15.2142 25.0026 14.8839 25.3327 14.4766 25.3327Z" fill="#75E8E7"/>
<path d="M14.4764 25.6861H12.0718C11.4703 25.6861 10.981 25.197 10.981 24.5958V22.1921C10.981 21.5909 11.4703 21.1018 12.0718 21.1018H14.4764C15.0781 21.1018 15.5675 21.5909 15.5675 22.1921V24.5955C15.5675 25.197 15.0781 25.6861 14.4764 25.6861ZM12.0718 21.8086C11.8602 21.8086 11.6881 21.9806 11.6881 22.1921V24.5955C11.6881 24.8071 11.8602 24.9791 12.0718 24.9791H14.4764C14.688 24.9791 14.8603 24.8071 14.8603 24.5955V22.1921C14.8603 21.9806 14.6883 21.8086 14.4764 21.8086H12.0718Z" fill="black"/>
<path d="M14.4766 31.3432H12.0721C11.6648 31.3432 11.3345 31.0131 11.3345 30.606V28.2026C11.3345 27.7955 11.6648 27.4654 12.0721 27.4654H14.4766C14.8839 27.4654 15.2142 27.7955 15.2142 28.2026V30.606C15.2142 31.0131 14.8839 31.3432 14.4766 31.3432Z" fill="#75E8E7"/>
<path d="M14.4764 31.6966H12.0718C11.4703 31.6966 10.981 31.2072 10.981 30.606V28.2026C10.981 27.6013 11.4703 27.1122 12.0718 27.1122H14.4764C15.0781 27.1122 15.5675 27.6013 15.5675 28.2026V30.606C15.5675 31.2072 15.0781 31.6966 14.4764 31.6966ZM12.0718 27.8188C11.8602 27.8188 11.6881 27.9908 11.6881 28.2023V30.6057C11.6881 30.8173 11.8602 30.9895 12.0718 30.9895H14.4764C14.688 30.9895 14.8603 30.8173 14.8603 30.6057V28.2026C14.8603 27.991 14.6883 27.819 14.4764 27.819H12.0718V27.8188Z" fill="black"/>
<path d="M14.4766 37.3534H12.0721C11.6648 37.3534 11.3345 37.0233 11.3345 36.6162V34.2128C11.3345 33.8057 11.6648 33.4756 12.0721 33.4756H14.4766C14.8839 33.4756 15.2142 33.8057 15.2142 34.2128V36.6162C15.2142 37.0233 14.8839 37.3534 14.4766 37.3534Z" fill="#75E8E7"/>
<path d="M14.4764 37.7068H12.0718C11.4703 37.7068 10.981 37.2177 10.981 36.6164V34.2128C10.981 33.6115 11.4703 33.1222 12.0718 33.1222H14.4764C15.0781 33.1222 15.5675 33.6115 15.5675 34.2128V36.6162C15.5675 37.2177 15.0781 37.7068 14.4764 37.7068ZM12.0718 33.8292C11.8602 33.8292 11.6881 34.0015 11.6881 34.213V36.6164C11.6881 36.828 11.8602 37 12.0718 37H14.4764C14.688 37 14.8603 36.828 14.8603 36.6164V34.2128C14.8603 34.0012 14.6883 33.829 14.4764 33.829H12.0718V33.8292Z" fill="black"/>
<path d="M48.2713 13.312H45.8668C45.4595 13.312 45.1292 12.982 45.1292 12.5749V10.1717C45.1292 9.76459 45.4595 9.43451 45.8668 9.43451H48.2713C48.6786 9.43451 49.0088 9.76459 49.0088 10.1717V12.5751C49.0086 12.9822 48.6786 13.312 48.2713 13.312Z" fill="#75E8E7"/>
<path d="M48.2712 13.6655H45.8667C45.2649 13.6655 44.7756 13.1761 44.7756 12.5749V10.1715C44.7756 9.57023 45.2649 9.08112 45.8667 9.08112H48.2712C48.8728 9.08112 49.3621 9.57023 49.3621 10.1715V12.5751C49.3621 13.1764 48.8728 13.6655 48.2712 13.6655ZM45.8667 9.78792C45.6548 9.78792 45.4827 9.95991 45.4827 10.1715V12.5751C45.4827 12.7867 45.6548 12.9589 45.8667 12.9589H48.2712C48.4827 12.9589 48.655 12.7867 48.655 12.5751V10.1715C48.655 9.95991 48.4829 9.78792 48.2712 9.78792H45.8667Z" fill="black"/>
<path d="M48.2713 19.3225H45.8668C45.4595 19.3225 45.1292 18.9924 45.1292 18.5853V16.1819C45.1292 15.7748 45.4595 15.4447 45.8668 15.4447H48.2713C48.6786 15.4447 49.0088 15.7748 49.0088 16.1819V18.5853C49.0086 18.9924 48.6786 19.3225 48.2713 19.3225Z" fill="#75E8E7"/>
<path d="M48.2712 19.6759H45.8667C45.2649 19.6759 44.7756 19.1868 44.7756 18.5853V16.1819C44.7756 15.5807 45.2649 15.0913 45.8667 15.0913H48.2712C48.8728 15.0913 49.3621 15.5807 49.3621 16.1819V18.5853C49.3621 19.1868 48.8728 19.6759 48.2712 19.6759ZM45.8667 15.7981C45.6548 15.7981 45.4827 15.9704 45.4827 16.1819V18.5853C45.4827 18.7969 45.6548 18.9691 45.8667 18.9691H48.2712C48.4827 18.9691 48.655 18.7969 48.655 18.5853V16.1819C48.655 15.9704 48.4829 15.7981 48.2712 15.7981H45.8667Z" fill="black"/>
<path d="M48.2713 25.3327H45.8668C45.4595 25.3327 45.1292 25.0026 45.1292 24.5955V22.1921C45.1292 21.785 45.4595 21.4549 45.8668 21.4549H48.2713C48.6786 21.4549 49.0088 21.785 49.0088 22.1921V24.5955C49.0086 25.0026 48.6786 25.3327 48.2713 25.3327Z" fill="#75E8E7"/>
<path d="M48.2712 25.6861H45.8667C45.2649 25.6861 44.7756 25.197 44.7756 24.5958V22.1921C44.7756 21.5909 45.2649 21.1018 45.8667 21.1018H48.2712C48.8728 21.1018 49.3621 21.5909 49.3621 22.1921V24.5955C49.3621 25.197 48.8728 25.6861 48.2712 25.6861ZM45.8667 21.8086C45.6548 21.8086 45.4827 21.9806 45.4827 22.1921V24.5955C45.4827 24.8071 45.6548 24.9791 45.8667 24.9791H48.2712C48.4827 24.9791 48.655 24.8071 48.655 24.5955V22.1921C48.655 21.9806 48.4829 21.8086 48.2712 21.8086H45.8667Z" fill="black"/>
<path d="M48.2713 31.3432H45.8668C45.4595 31.3432 45.1292 31.0131 45.1292 30.606V28.2026C45.1292 27.7955 45.4595 27.4654 45.8668 27.4654H48.2713C48.6786 27.4654 49.0088 27.7955 49.0088 28.2026V30.606C49.0086 31.0131 48.6786 31.3432 48.2713 31.3432Z" fill="#75E8E7"/>
<path d="M48.2712 31.6966H45.8667C45.2649 31.6966 44.7756 31.2072 44.7756 30.606V28.2026C44.7756 27.6013 45.2649 27.1122 45.8667 27.1122H48.2712C48.8728 27.1122 49.3621 27.6013 49.3621 28.2026V30.606C49.3621 31.2072 48.8728 31.6966 48.2712 31.6966ZM45.8667 27.8188C45.6548 27.8188 45.4827 27.9908 45.4827 28.2023V30.6057C45.4827 30.8173 45.6548 30.9895 45.8667 30.9895H48.2712C48.4827 30.9895 48.655 30.8173 48.655 30.6057V28.2026C48.655 27.991 48.4829 27.819 48.2712 27.819H45.8667V27.8188Z" fill="black"/>
<path d="M48.2713 37.3534H45.8668C45.4595 37.3534 45.1292 37.0233 45.1292 36.6162V34.2128C45.1292 33.8057 45.4595 33.4756 45.8668 33.4756H48.2713C48.6786 33.4756 49.0088 33.8057 49.0088 34.2128V36.6162C49.0086 37.0233 48.6786 37.3534 48.2713 37.3534Z" fill="#75E8E7"/>
<path d="M48.2712 37.7068H45.8667C45.2649 37.7068 44.7756 37.2177 44.7756 36.6164V34.2128C44.7756 33.6115 45.2649 33.1222 45.8667 33.1222H48.2712C48.8728 33.1222 49.3621 33.6115 49.3621 34.2128V36.6162C49.3621 37.2177 48.8728 37.7068 48.2712 37.7068ZM45.8667 33.8292C45.6548 33.8292 45.4827 34.0015 45.4827 34.213V36.6164C45.4827 36.828 45.6548 37 45.8667 37H48.2712C48.4827 37 48.655 36.828 48.655 36.6164V34.2128C48.655 34.0012 48.4829 33.829 48.2712 33.829H45.8667V33.8292Z" fill="black"/>
</svg>
