<svg width="51" height="54" viewBox="0 0 51 54" fill="none" xmlns="http://www.w3.org/2000/svg">
<path d="M0.857086 26.1523V49.4069C0.857086 51.6327 2.65505 53.4369 4.87304 53.4369H35.4626C37.6806 53.4369 39.4786 51.6327 39.4786 49.4069V4.92786C39.4786 2.70213 37.6806 0.897888 35.4626 0.897888H4.87328C2.65529 0.897888 0.857321 2.70213 0.857321 4.92786V22.8423V26.1523H0.857086Z" fill="white"/>
<path fill-rule="evenodd" clip-rule="evenodd" d="M35.4629 53.7906H4.87332C2.46468 53.7906 0.505188 51.8242 0.505188 49.4072V26.1526V4.92787C0.505188 2.51083 2.46468 0.544495 4.87332 0.544495H35.4629C37.8715 0.544495 39.831 2.51083 39.831 4.92787V49.4069C39.8313 51.8242 37.8715 53.7906 35.4629 53.7906ZM1.20954 49.4072V26.1526V4.92787C1.20954 2.90052 2.85325 1.2513 4.87332 1.2513H35.4629C37.4832 1.2513 39.1269 2.90052 39.1267 4.92787V49.4072C39.1267 51.4345 37.4832 53.0838 35.4629 53.0838H4.87332C2.85325 53.0838 1.20954 51.4345 1.20954 49.4072Z" fill="black"/>
<path d="M17.7646 4.66754H6.02479C5.04011 4.66754 4.24185 5.46859 4.24185 6.4567V43.8729C4.24185 44.861 5.04011 45.6621 6.02479 45.6621H34.3109C35.2956 45.6621 36.0939 44.861 36.0939 43.8729V6.4567C36.0939 5.46859 35.2956 4.66754 34.3109 4.66754H20.9281H17.7646Z" fill="white"/>
<path fill-rule="evenodd" clip-rule="evenodd" d="M34.3109 46.0157H6.02475C4.84732 46.0157 3.8894 45.0544 3.8894 43.8731V6.45668C3.8894 5.27514 4.84732 4.31412 6.02475 4.31412H17.7643H34.3109C35.4883 4.31412 36.4462 5.27537 36.4462 6.45668V43.8731C36.4462 45.0544 35.4883 46.0157 34.3109 46.0157ZM6.02475 5.02092H17.7643H34.3109C35.1 5.02092 35.7419 5.66506 35.7419 6.45668V43.8731C35.7419 44.6647 35.0998 45.3089 34.3109 45.3089H6.02475C5.23565 45.3089 4.59375 44.6647 4.59375 43.8731V6.45668C4.59375 5.66506 5.23588 5.02092 6.02475 5.02092Z" fill="black"/>
<path d="M20.0506 51.5523C21.0879 51.5523 21.9288 50.7085 21.9288 49.6675C21.9288 48.6266 21.0879 47.7827 20.0506 47.7827C19.0132 47.7827 18.1723 48.6266 18.1723 49.6675C18.1723 50.7085 19.0132 51.5523 20.0506 51.5523Z" fill="#75E8E7"/>
<path d="M20.0508 51.9058C18.821 51.9058 17.8204 50.9016 17.8204 49.6675C17.8204 48.4335 18.821 47.4293 20.0508 47.4293C21.2806 47.4293 22.2813 48.4335 22.2813 49.6675C22.2813 50.9016 21.2806 51.9058 20.0508 51.9058ZM20.0508 48.1361C19.2094 48.1361 18.5248 48.8231 18.5248 49.6675C18.5248 50.5119 19.2094 51.199 20.0508 51.199C20.8923 51.199 21.5769 50.5119 21.5769 49.6675C21.5769 48.8231 20.8923 48.1361 20.0508 48.1361Z" fill="black"/>
<path d="M25.2275 44.0326C30.0379 44.0326 33.9374 40.1194 33.9374 35.2923C33.9374 30.4651 30.0379 26.5519 25.2275 26.5519C20.4171 26.5519 16.5175 30.4651 16.5175 35.2923C16.5175 40.1194 20.4171 44.0326 25.2275 44.0326Z" fill="#75E8E7"/>
<path d="M25.2277 44.3863C20.2308 44.3863 16.1653 40.3068 16.1653 35.2925C16.1653 30.2782 20.2306 26.1985 25.2277 26.1985C30.2248 26.1985 34.2901 30.2779 34.2901 35.2925C34.2899 40.3068 30.2246 44.3863 25.2277 44.3863ZM25.2277 26.9053C20.6192 26.9053 16.8697 30.6679 16.8697 35.2925C16.8697 39.9171 20.6192 43.6795 25.2277 43.6795C29.8363 43.6795 33.5858 39.9171 33.5858 35.2925C33.5855 30.6676 29.836 26.9053 25.2277 26.9053Z" fill="black"/>
<path d="M29.7356 34.6771V37.9741C29.7356 38.4373 29.3618 38.8126 28.9 38.8126H21.5544C21.0928 38.8126 20.7188 38.4376 20.7188 37.9741V34.6771L25.2271 36.9783L29.7356 34.6771Z" fill="white"/>
<path d="M28.9 39.166H21.5544C20.8996 39.166 20.3666 38.6315 20.3666 37.9741V34.6769C20.3666 34.5541 20.4303 34.4399 20.5347 34.3755C20.6392 34.3115 20.7693 34.306 20.8785 34.3619L25.2271 36.5813L29.5757 34.3619C29.6847 34.306 29.8148 34.3115 29.9195 34.3755C30.0237 34.4399 30.0876 34.5539 30.0876 34.6769V37.9741C30.0878 38.6315 29.5549 39.166 28.9 39.166ZM21.071 35.2532V37.9741C21.071 38.2415 21.2879 38.4592 21.5544 38.4592H28.9C29.1665 38.4592 29.3835 38.2418 29.3835 37.9741V35.2532L25.387 37.293C25.287 37.3444 25.1677 37.3444 25.0679 37.293L21.071 35.2532Z" fill="black"/>
<path d="M31.0708 33.9965V38.2133C30.8971 37.9892 30.6621 37.8514 30.4024 37.8514C30.1444 37.8514 29.9094 37.9892 29.7356 38.2133V34.6771L31.0708 33.9965Z" fill="white"/>
<path d="M31.0708 38.5667C30.9642 38.5667 30.8612 38.5179 30.7929 38.4303C30.7276 38.3459 30.59 38.2046 30.4022 38.2046C30.216 38.2046 30.0789 38.3457 30.0138 38.4298C29.9211 38.5493 29.7633 38.5961 29.6215 38.5474C29.479 38.4984 29.3835 38.3641 29.3835 38.2131V34.6769C29.3835 34.5438 29.4579 34.422 29.576 34.3619L30.9109 33.6813C31.0199 33.6256 31.1504 33.6308 31.2547 33.6951C31.3592 33.7592 31.4228 33.8735 31.4228 33.9962V38.2131C31.4228 38.3641 31.3272 38.4984 31.1849 38.5474C31.1476 38.5603 31.1091 38.5667 31.0708 38.5667ZM30.4024 37.498C30.5106 37.498 30.6168 37.5138 30.7189 37.5449V34.5725L30.0883 34.8941V37.5447C30.1895 37.5138 30.2949 37.498 30.4024 37.498Z" fill="black"/>
<path d="M25.2272 30.0539L18.4443 33.5158L25.2272 36.978L32.0103 33.5158L25.2272 30.0539Z" fill="white"/>
<path d="M25.2274 37.3314C25.1727 37.3314 25.1178 37.3187 25.0678 37.293L18.2847 33.8311C18.1664 33.7708 18.0922 33.6492 18.0922 33.5161C18.0922 33.3832 18.1664 33.2614 18.2847 33.2011L25.0678 29.7389C25.1678 29.6875 25.2871 29.6875 25.3869 29.7389L32.17 33.2011C32.2883 33.2614 32.3625 33.383 32.3625 33.5161C32.3625 33.649 32.2883 33.7708 32.17 33.8311L25.3869 37.293C25.3368 37.3185 25.2821 37.3314 25.2274 37.3314ZM19.2212 33.5158L25.2274 36.5813L31.2336 33.5158L25.2274 30.4502L19.2212 33.5158Z" fill="black"/>
<path d="M30.403 40.5309C30.9428 40.5309 31.3804 39.9311 31.3804 39.1913C31.3804 38.4514 30.9428 37.8516 30.403 37.8516C29.8632 37.8516 29.4256 38.4514 29.4256 39.1913C29.4256 39.9311 29.8632 40.5309 30.403 40.5309Z" fill="white"/>
<path d="M30.403 40.8843C29.6573 40.8843 29.0734 40.1407 29.0734 39.1913C29.0734 38.2418 29.6573 37.4982 30.403 37.4982C31.1487 37.4982 31.7326 38.2418 31.7326 39.1913C31.7326 40.1407 31.1487 40.8843 30.403 40.8843ZM30.403 38.205C30.0642 38.205 29.7778 38.6567 29.7778 39.1913C29.7778 39.7258 30.0642 40.1775 30.403 40.1775C30.7418 40.1775 31.0282 39.7258 31.0282 39.1913C31.0285 38.6567 30.742 38.205 30.403 38.205Z" fill="black"/>
<path d="M24.5848 20.0514C26.4257 15.5916 24.3152 10.4786 19.8708 8.63119C15.4263 6.78378 10.331 8.90157 8.4901 13.3614C6.64917 17.8212 8.75972 22.9342 13.2042 24.7816C17.6486 26.6291 22.7439 24.5113 24.5848 20.0514Z" fill="white"/>
<path d="M16.5362 25.8003C11.5393 25.8003 7.47379 21.7209 7.47379 16.7066C7.47379 11.692 11.5393 7.61255 16.5362 7.61255C21.533 7.61255 25.5985 11.692 25.5985 16.7066C25.5985 21.7209 21.533 25.8003 16.5362 25.8003ZM16.5362 8.31936C11.9276 8.31936 8.17813 12.0819 8.17813 16.7066C8.17813 21.3312 11.9276 25.0935 16.5362 25.0935C21.1447 25.0935 24.8942 21.3312 24.8942 16.7066C24.8942 12.0819 21.1447 8.31936 16.5362 8.31936Z" fill="black"/>
<path d="M16.5364 11.781C16.342 11.781 16.1843 11.623 16.1843 11.4276V10.673C16.1843 10.4777 16.342 10.3196 16.5364 10.3196C16.7308 10.3196 16.8886 10.4777 16.8886 10.673V11.4276C16.8886 11.623 16.7308 11.781 16.5364 11.781Z" fill="black"/>
<path d="M19.6848 12.8302C19.6116 12.8302 19.5376 12.8074 19.4745 12.76C19.3186 12.6434 19.2864 12.4219 19.4026 12.2655L19.8522 11.6607C19.9684 11.504 20.1896 11.472 20.345 11.5888C20.5009 11.7054 20.5331 11.9269 20.4169 12.0833L19.9673 12.6881C19.8982 12.781 19.7921 12.8302 19.6848 12.8302Z" fill="black"/>
<path d="M21.5835 15.5601C21.4318 15.5601 21.2916 15.4607 21.2461 15.3073C21.1907 15.12 21.2968 14.9235 21.4834 14.8679L22.2042 14.6531C22.3911 14.5975 22.5867 14.7042 22.6419 14.8913C22.6973 15.0783 22.5911 15.2751 22.4045 15.3307L21.6837 15.5455C21.6504 15.5554 21.6168 15.5601 21.5835 15.5601Z" fill="black"/>
<path d="M22.1842 19.1481C22.1438 19.1481 22.1027 19.1411 22.0625 19.1262L21.3568 18.8659C21.1744 18.7985 21.0807 18.5954 21.1476 18.4123C21.2147 18.229 21.4166 18.135 21.5998 18.2027L22.3055 18.463C22.488 18.5304 22.5816 18.7335 22.5147 18.9165C22.4621 19.0595 22.3274 19.1481 22.1842 19.1481Z" fill="black"/>
<path d="M13.3881 12.8302C13.2808 12.8302 13.1746 12.7809 13.1056 12.6881L12.656 12.0833C12.5398 11.9269 12.572 11.7054 12.7279 11.5888C12.883 11.4722 13.1044 11.5042 13.2207 11.6607L13.6703 12.2655C13.7865 12.4219 13.7543 12.6434 13.5984 12.76C13.5353 12.8073 13.4613 12.8302 13.3881 12.8302Z" fill="black"/>
<path d="M11.4893 15.5601C11.4559 15.5601 11.4221 15.5554 11.3885 15.5455L10.668 15.3307C10.4816 15.2751 10.3755 15.0783 10.4309 14.8913C10.4863 14.7042 10.6825 14.5975 10.8687 14.6531L11.5893 14.8679C11.7757 14.9235 11.8818 15.1203 11.8264 15.3073C11.7811 15.4609 11.6409 15.5601 11.4893 15.5601Z" fill="black"/>
<path d="M10.8885 19.1481C10.7452 19.1481 10.6102 19.0595 10.5579 18.9165C10.491 18.7334 10.5844 18.5301 10.7671 18.463L11.4728 18.2026C11.6557 18.1352 11.8579 18.229 11.925 18.4123C11.9919 18.5954 11.8985 18.7987 11.7158 18.8658L11.0101 19.1262C10.9699 19.141 10.9288 19.1481 10.8885 19.1481Z" fill="black"/>
<path d="M20.0572 16.5911C20.0572 17.488 19.7252 18.3039 19.1761 18.9276C18.6589 19.5149 18.329 20.2389 18.1928 21.0077H14.8791C14.7429 20.2389 14.4152 19.5149 13.8958 18.9255C13.3488 18.3039 13.0147 17.4859 13.0147 16.5911C13.0147 14.7332 14.498 13.1612 16.3453 13.063C18.3759 12.9562 20.0572 14.5772 20.0572 16.5911Z" fill="#75E8E7"/>
<path d="M18.1928 21.3611H14.8791C14.7082 21.3611 14.5621 21.2384 14.5323 21.0697C14.4034 20.3426 14.0921 19.682 13.6317 19.1597C13.0067 18.4493 12.6625 17.5373 12.6625 16.5914C12.6625 14.5588 14.3062 12.8177 16.3265 12.7103C17.4004 12.654 18.4227 13.0309 19.2014 13.7724C19.98 14.514 20.4092 15.5151 20.4092 16.5914C20.4092 17.5389 20.0647 18.4519 19.4397 19.1618C18.9791 19.6848 18.6675 20.3447 18.5391 21.0699C18.5095 21.2384 18.3635 21.3611 18.1928 21.3611ZM15.1651 20.6543H17.9068C18.0843 19.9155 18.4288 19.2426 18.9122 18.6936C19.4235 18.1129 19.705 17.3662 19.705 16.5911C19.705 15.7107 19.3543 14.8917 18.7168 14.2848C18.0796 13.6781 17.2445 13.3695 16.3639 13.4159C14.7117 13.5038 13.3671 14.9282 13.3671 16.5911C13.3671 17.3646 13.6486 18.1105 14.1597 18.6915C14.6431 19.24 14.9873 19.9138 15.1651 20.6543Z" fill="black"/>
<path d="M14.9616 21.0084H18.1107C18.5051 21.0084 18.8249 21.3293 18.8249 21.7251V22.0229C18.8249 22.4187 18.5051 22.7396 18.1107 22.7396H14.9616C14.5671 22.7396 14.2473 22.4187 14.2473 22.0229V21.7251C14.2476 21.3293 14.5674 21.0084 14.9616 21.0084Z" fill="#75E8E7"/>
<path d="M18.1109 23.0933H14.9616C14.3737 23.0933 13.8954 22.6131 13.8954 22.0232V21.7251C13.8954 21.1352 14.3737 20.655 14.9616 20.655H18.1109C18.6988 20.655 19.1771 21.1352 19.1771 21.7251V22.0229C19.1771 22.6131 18.6988 23.0933 18.1109 23.0933ZM14.9616 21.3618C14.762 21.3618 14.5998 21.5249 14.5998 21.7251V22.0229C14.5998 22.2232 14.762 22.3862 14.9616 22.3862H18.1109C18.3105 22.3862 18.4727 22.2232 18.4727 22.0229V21.7251C18.4727 21.5249 18.3105 21.3618 18.1109 21.3618H14.9616Z" fill="black"/>
<path d="M41.646 31.8588C46.4565 31.8588 50.3562 27.9455 50.3562 23.1182C50.3562 18.2909 46.4565 14.3776 41.646 14.3776C36.8354 14.3776 32.9358 18.2909 32.9358 23.1182C32.9358 27.9455 36.8354 31.8588 41.646 31.8588Z" fill="white"/>
<path d="M41.646 32.212C36.6491 32.212 32.5836 28.1326 32.5836 23.118C32.5836 18.1034 36.6488 14.0242 41.646 14.0242C46.6431 14.0242 50.7081 18.1037 50.7081 23.118C50.7081 28.1323 46.6428 32.212 41.646 32.212ZM41.646 14.731C37.0374 14.731 33.2879 18.4934 33.2879 23.118C33.2879 27.7426 37.0374 31.5052 41.646 31.5052C46.2545 31.5052 50.0038 27.7426 50.0038 23.118C50.0038 18.4934 46.2545 14.731 41.646 14.731Z" fill="black"/>
<path d="M47.9763 27.0323L41.6458 28.0756L35.3154 27.0323V19.1031L41.6458 20.1464L47.9763 19.1031V27.0323Z" fill="#75E8E7"/>
<path d="M41.6458 28.4292C41.6268 28.4292 41.6077 28.4275 41.5887 28.4245L35.258 27.3812C35.0878 27.3532 34.9629 27.2055 34.9629 27.0325V19.1031C34.9629 18.9995 35.0082 18.901 35.0871 18.8336C35.1658 18.7664 35.2698 18.7368 35.3722 18.7544L41.6458 19.7883L47.9192 18.7544C48.0218 18.7375 48.1255 18.7664 48.2042 18.8336C48.2831 18.9007 48.3284 18.9992 48.3284 19.1031V27.0323C48.3284 27.2052 48.2035 27.353 48.0333 27.381L41.7028 28.4242C41.684 28.4275 41.6648 28.4292 41.6458 28.4292ZM35.6673 26.7322L41.6458 27.7174L47.624 26.7322V19.5194L41.7028 20.4953C41.6653 20.5014 41.6268 20.5014 41.5887 20.4953L35.6673 19.5194V26.7322ZM47.9762 27.0323H47.9786H47.9762Z" fill="black"/>
<path d="M41.6456 28.4292C41.4512 28.4292 41.2935 28.2711 41.2935 28.0758V20.1463C41.2935 19.951 41.4512 19.7929 41.6456 19.7929C41.84 19.7929 41.9978 19.951 41.9978 20.1463V28.0755C41.9978 28.2708 41.84 28.4292 41.6456 28.4292Z" fill="black"/>
<path d="M35.7423 16.2285V6.45575C35.7423 5.66413 35.099 5.02094 34.3102 5.02094H30.7884C31.5773 5.02094 32.2206 5.66413 32.2206 6.45575V16.2285C30.2883 17.8966 29.0628 20.3657 29.0628 23.1175C29.0628 24.8327 29.5394 26.4372 30.3635 27.806C32.7348 29.4458 34.289 32.1906 34.289 35.2934C34.289 37.4845 33.5119 39.4989 32.2206 41.0681V43.8741C32.2206 44.6657 31.5773 45.3089 30.7884 45.3089H34.3102C35.099 45.3089 35.7423 44.6657 35.7423 43.8741V30.0089C33.8101 28.3408 32.5845 25.8717 32.5845 23.1175C32.5843 20.3657 33.8098 17.8966 35.7423 16.2285Z" fill="white"/>
</svg>
