<svg width="54" height="54" viewBox="0 0 54 54" fill="none" xmlns="http://www.w3.org/2000/svg">
<path d="M18.4968 53.4572V44.3877H14.6028C12.0842 44.3877 10.0422 42.3469 10.0422 39.8293V33.4409C9.94348 33.3422 9.88715 33.2859 9.78838 33.1872H2.6915C1.28688 33.1872 0.40884 31.6673 1.11127 30.4514L8.70928 17.2975C8.77575 17.1823 8.82855 17.0595 8.86792 16.9323C11.7632 7.57843 20.5179 0.797563 30.8462 0.877904C43.1891 0.974029 53.3036 11.018 53.4757 23.3543C53.5909 31.611 49.3141 38.8768 42.832 42.9703V53.4575H18.4968V53.4572Z" fill="white"/>
<path d="M42.8323 53.8107C42.6372 53.8107 42.4788 53.6523 42.4788 53.4573V42.9701C42.4788 42.8488 42.541 42.7362 42.6435 42.6714C49.315 38.4584 53.2323 31.239 53.1222 23.3591C52.9532 11.2522 42.9592 1.32559 30.8434 1.23135C30.7829 1.23087 30.7223 1.23064 30.6619 1.23064C25.7982 1.23064 21.1752 2.75711 17.2804 5.65077C13.4699 8.48247 10.6022 12.5259 9.20582 17.0367C9.1582 17.1908 9.09409 17.338 9.01583 17.4738L1.41758 30.6281C1.1517 31.0885 1.1517 31.6382 1.41758 32.0985C1.6837 32.5589 2.15985 32.8338 2.69162 32.8338H9.78827C9.88185 32.8338 9.97165 32.8708 10.0381 32.9373L10.2922 33.191C10.3585 33.2572 10.3957 33.3472 10.3957 33.441V39.8293C10.3957 42.1479 12.2831 44.0344 14.6027 44.0344H18.4967C18.6919 44.0344 18.8503 44.1927 18.8503 44.3878V53.4573C18.8503 53.6523 18.6919 53.8107 18.4967 53.8107C18.3016 53.8107 18.1432 53.6523 18.1432 53.4573V44.7412H14.603C11.8934 44.7412 9.6888 42.5378 9.6888 39.8293V33.5875L9.64213 33.5409H2.69162C1.9041 33.5409 1.19908 33.1338 0.805197 32.4522C0.411319 31.7703 0.411319 30.9563 0.805197 30.275L8.40321 17.1208C8.4553 17.0306 8.49797 16.9321 8.53026 16.828C9.97024 12.1751 12.9282 8.0042 16.8588 5.08368C20.9262 2.06161 25.7631 0.488257 30.8491 0.524539C43.3462 0.621843 53.6552 10.8611 53.8294 23.3494C53.9418 31.412 49.9669 38.8042 43.1859 43.164V53.4575C43.1859 53.6523 43.0278 53.8107 42.8323 53.8107Z" fill="black"/>
<path d="M17.5125 29.9971C17.6495 30.2457 17.7907 30.4917 17.9418 30.731L17.5304 31.1424C16.9888 31.6838 16.9888 32.5614 17.5304 33.1031L20.0278 35.5993C20.5695 36.1407 21.4478 36.1407 21.9895 35.5993L22.3831 35.2058C23.7766 36.0983 25.334 36.7568 26.9998 37.1281V37.674C26.9998 38.4397 27.6209 39.0603 28.3867 39.0603H31.9187C32.6848 39.0603 33.3056 38.4395 33.3056 37.674V37.1281C34.9714 36.7568 36.529 36.0983 37.9223 35.2058L38.3162 35.5993C38.8579 36.1407 39.7361 36.1407 40.2778 35.5993L42.7752 33.1031C43.3169 32.5617 43.3169 31.6838 42.7752 31.1424L42.3639 30.731C43.24 29.341 43.8847 27.7907 44.2449 26.1342H44.8507C45.6167 26.1342 46.2376 25.5134 46.2376 24.7479V21.2177C46.2376 20.452 45.6167 19.8314 44.8507 19.8314H44.2117C43.8371 18.1951 43.1844 16.6647 42.3052 15.2932L42.7752 14.8232C43.3169 14.2818 43.3169 13.4039 42.7752 12.8625L40.2778 10.3663C39.7361 9.82489 38.8579 9.82489 38.3162 10.3663L37.8285 10.8538C36.459 9.99146 34.9344 9.35322 33.3056 8.99016V8.29183C33.3056 7.52612 32.6845 6.90555 31.9187 6.90555H28.3867C27.6207 6.90555 26.9998 7.52612 26.9998 8.29183V8.99016C25.371 9.35322 23.8466 9.99146 22.4769 10.8538L21.9892 10.3663C21.4475 9.82489 20.5693 9.82489 20.0276 10.3663L17.5302 12.8625C16.9885 13.4039 16.9885 14.2818 17.5302 14.8232L18.0002 15.2932C17.121 16.6647 16.4681 18.1951 16.0938 19.8314H15.4547C14.6887 19.8314 14.0678 20.452 14.0678 21.2177V24.7479C14.0678 25.5136 14.6887 26.1342 15.4547 26.1342H16.0605C16.1322 26.4631 16.218 26.7868 16.3116 27.107L17.5125 29.9971ZM30.1527 30.1903C26.1701 30.1903 22.9417 26.9633 22.9417 22.9828C22.9417 19.0021 26.1703 15.7753 30.1527 15.7753C34.1353 15.7753 37.3639 19.0023 37.3639 22.9828C37.3639 26.9633 34.1353 30.1903 30.1527 30.1903Z" fill="#75E8E7"/>
<path d="M30.1524 30.5438C25.9815 30.5438 22.5879 27.152 22.5879 22.9826C22.5879 18.8136 25.9812 15.4216 30.1524 15.4216C34.3236 15.4216 37.7172 18.8134 37.7172 22.9826C37.7172 27.152 34.3239 30.5438 30.1524 30.5438ZM30.1524 16.1287C26.3713 16.1287 23.295 19.2035 23.295 22.9828C23.295 26.7624 26.3713 29.8372 30.1524 29.8372C33.9338 29.8372 37.0101 26.7624 37.0101 22.9828C37.0101 19.2033 33.9338 16.1287 30.1524 16.1287Z" fill="black"/>
<path fill-rule="evenodd" clip-rule="evenodd" d="M31.9186 39.4135H28.3869C27.4271 39.4135 26.6462 38.6332 26.6462 37.6736V37.4083C25.1562 37.0459 23.7417 36.4571 22.434 35.6547L22.2393 35.8491C21.5607 36.5269 20.4566 36.5274 19.7779 35.8491L17.2806 33.3528C16.6019 32.6743 16.6019 31.5708 17.2806 30.8925L17.4948 30.6783C17.4015 30.5216 16.1654 27.8661 15.9721 27.206C15.922 27.035 15.8335 26.7133 15.7788 26.4872H15.4545C14.4949 26.4872 13.714 25.7069 13.714 24.7475V21.2172C13.714 20.2581 14.4946 19.4775 15.4545 19.4775H15.8146C16.1781 18.0173 16.7613 16.6289 17.5507 15.3434L17.2801 15.0727C16.6015 14.3944 16.6015 13.2909 17.2801 12.6123L19.7775 10.1161C20.4563 9.43759 21.5604 9.43806 22.2388 10.1161L22.5287 10.4059C23.8113 9.63219 25.1937 9.06251 26.6457 8.70934V8.29162C26.6457 7.33225 27.4266 6.5517 28.3865 6.5517H31.9182C32.878 6.5517 33.6589 7.33201 33.6589 8.29162V8.70934C35.1109 9.06251 36.4932 9.63219 37.7759 10.4059L38.0658 10.1161C38.7442 9.43782 39.8483 9.43759 40.5272 10.1161L43.0246 12.6123C43.3534 12.9412 43.5344 13.378 43.5344 13.8426C43.5344 14.3075 43.3534 14.7443 43.0246 15.073L42.754 15.3437C43.5436 16.6286 44.1265 18.0168 44.4902 19.4778H44.8502C45.8098 19.4778 46.5907 20.2581 46.5907 21.2175V24.7477C46.5907 25.7069 45.81 26.4874 44.8502 26.4874H44.5265C44.1751 27.9665 43.5988 29.374 42.811 30.6788L43.0246 30.8922C43.3534 31.2209 43.5344 31.6577 43.5344 32.1225C43.5344 32.5871 43.3534 33.0239 43.0246 33.3528L40.5272 35.8491C39.8485 36.5276 38.7445 36.5271 38.0658 35.8491L37.8711 35.6547C36.5634 36.4571 35.1489 37.0461 33.6589 37.4083V37.6736C33.6592 38.6329 32.8785 39.4135 31.9186 39.4135ZM18.2411 30.5431C18.1091 30.3331 16.9459 27.8377 16.6507 27.0078C16.5496 26.662 16.4695 26.3515 16.4058 26.0591C16.3702 25.8965 16.2267 25.7806 16.0603 25.7806H15.4545C14.8848 25.7806 14.4211 25.3172 14.4211 24.7477V21.2175C14.4211 20.648 14.8848 20.1846 15.4545 20.1846H16.0937C16.2585 20.1846 16.4018 20.0708 16.4383 19.9099C16.7985 18.336 17.4241 16.8468 18.2979 15.4836C18.3877 15.3437 18.3677 15.1604 18.2503 15.043L17.7803 14.5732C17.3774 14.1706 17.3774 13.5152 17.7803 13.1123L20.2781 10.6158C20.681 10.213 21.3367 10.2132 21.7396 10.6158L22.2273 11.1033C22.3437 11.2202 22.5261 11.2399 22.6657 11.1525C24.0269 10.2952 25.511 9.68355 27.0768 9.33463C27.2388 9.29882 27.3536 9.1551 27.3536 8.98971V8.29138C27.3536 7.7217 27.8172 7.25827 28.3872 7.25827H31.9189C32.4888 7.25827 32.9525 7.7217 32.9525 8.29138V8.98971C32.9525 9.1551 33.0673 9.29882 33.2292 9.33463C34.7951 9.68379 36.2794 10.2952 37.6404 11.1525C37.7804 11.2399 37.9624 11.2202 38.0788 11.1033L38.5665 10.6158C38.9691 10.2134 39.6249 10.213 40.0279 10.6158L42.5253 13.112C42.7205 13.3076 42.828 13.5667 42.828 13.8426C42.828 14.1185 42.7205 14.3782 42.5253 14.5732L42.0553 15.043C41.9379 15.1604 41.9179 15.3437 42.0077 15.4836C42.8812 16.8461 43.5071 18.3353 43.8675 19.9101C43.904 20.0708 44.0473 20.1846 44.2121 20.1846H44.8511C45.4208 20.1846 45.8845 20.648 45.8845 21.2175V24.7477C45.8845 25.3172 45.4208 25.7806 44.8511 25.7806H44.2453C44.0789 25.7806 43.9349 25.8967 43.8998 26.0591C43.5535 27.6517 42.9364 29.1601 42.065 30.5426C41.977 30.6821 41.9976 30.8642 42.1142 30.9808L42.5255 31.3919C42.7207 31.5872 42.8282 31.8466 42.8282 32.1225C42.8282 32.3984 42.7207 32.6578 42.5255 32.8531L40.0282 35.3493C39.6251 35.752 38.9693 35.7517 38.5667 35.3493L38.1729 34.9556C38.0559 34.8383 37.8728 34.8185 37.7321 34.9081C36.3475 35.7949 34.8325 36.4253 33.2292 36.783C33.0673 36.8188 32.9525 36.9625 32.9525 37.1279V37.6736C32.9525 38.2432 32.4888 38.7067 31.9189 38.7067H28.3872C27.8172 38.7067 27.3536 38.2432 27.3536 37.6736V37.1279C27.3536 36.9625 27.2388 36.8188 27.0768 36.783C25.4735 36.4253 23.9583 35.7946 22.574 34.9081C22.4335 34.8183 22.2504 34.8383 22.1332 34.9556L21.7393 35.3493C21.3367 35.752 20.681 35.752 20.2779 35.3493L17.7805 32.8531C17.3777 32.4503 17.3777 31.7948 17.7805 31.3922L18.1918 30.981C18.3085 30.8644 18.329 30.6828 18.2411 30.5431Z" fill="black"/>
<path d="M45.2315 37.7974H44.9057C44.7148 36.9631 44.382 36.1828 43.9337 35.4835L44.1734 35.2439C44.4496 34.9678 44.4496 34.5204 44.1734 34.2442L42.9 32.9715C42.6238 32.6954 42.1762 32.6954 41.8999 32.9715L41.6512 33.2201C40.953 32.7804 40.1757 32.4551 39.3452 32.2699V31.9139C39.3452 31.5235 39.0287 31.2071 38.6381 31.2071H36.8372C36.4467 31.2071 36.1301 31.5235 36.1301 31.9139V32.2699C35.69 32.3884 34.5223 32.7804 33.8241 33.2201L33.5754 32.9715C33.2992 32.6954 32.8515 32.6954 32.5753 32.9715L31.302 34.2442C31.0257 34.5204 31.0257 34.9678 31.302 35.2439L31.5417 35.4835C31.0934 36.1828 30.7605 36.9631 30.5696 37.7974H30.2438C29.8533 37.7974 29.5367 38.1138 29.5367 38.5042V40.3042C29.5367 40.6946 29.8533 41.011 30.2438 41.011H30.5526C30.7362 41.8556 31.0651 42.646 31.5117 43.3547L31.302 43.5644C31.0257 43.8406 31.0257 44.288 31.302 44.5641L32.5753 45.8368C32.8515 46.1129 33.2992 46.1129 33.5754 45.8368L33.7763 45.6361C34.4867 46.091 35.2808 46.4268 36.1303 46.6162V46.8944C36.1303 47.2848 36.4469 47.6012 36.8375 47.6012H38.6383C39.0289 47.6012 39.3455 47.2848 39.3455 46.8944V46.6162C40.1948 46.4268 40.9889 46.091 41.6996 45.6361L41.9004 45.8368C42.1766 46.1129 42.6243 46.1129 42.9005 45.8368L44.1738 44.5641C44.4501 44.288 44.4501 43.8406 44.1738 43.5644L43.9641 43.3547C44.4107 42.646 44.7396 41.8556 44.9232 41.011H45.232C45.6225 41.011 45.9391 40.6946 45.9391 40.3042V38.5042C45.9386 38.1138 45.6221 37.7974 45.2315 37.7974ZM37.7374 43.0791C35.7068 43.0791 34.0608 41.4336 34.0608 39.4042C34.0608 37.3745 35.707 35.7292 37.7374 35.7292C39.7681 35.7292 41.4141 37.3747 41.4141 39.4042C41.4141 41.4339 39.7681 43.0791 37.7374 43.0791Z" fill="white"/>
<path d="M38.6379 47.9548H36.8371C36.252 47.9548 35.7763 47.4792 35.7763 46.8946V46.8944C35.0918 46.7149 34.4387 46.4432 33.8284 46.0835L33.8246 46.0872C33.6247 46.2872 33.3581 46.3975 33.0748 46.3975C32.7915 46.3975 32.5249 46.2872 32.3245 46.087L31.0514 44.8143C30.6378 44.4008 30.6378 43.7284 31.0514 43.3149L31.0653 43.301C30.7127 42.6934 30.4468 42.0441 30.2726 41.3646H30.2434C29.6586 41.3646 29.1825 40.8889 29.1825 40.3044V38.5044C29.1825 37.9198 29.6586 37.4439 30.2434 37.4439H30.2927C30.4723 36.7741 30.7408 36.1344 31.0939 35.536L31.0514 35.4936C30.6378 35.0801 30.6378 34.4077 31.0514 33.9942L32.3245 32.7215C32.5249 32.521 32.7913 32.411 33.0748 32.411C33.3581 32.411 33.6247 32.5215 33.8251 32.7215L33.8807 32.7771C34.5094 32.4327 35.3139 32.1488 35.7761 32.0055V31.9136C35.7761 31.3291 36.2518 30.8534 36.8368 30.8534H38.6377C39.2225 30.8534 39.6984 31.3291 39.6984 31.9136V31.9919C40.3638 32.1662 41 32.4287 41.5968 32.7743L41.6499 32.7213C42.0631 32.3076 42.7363 32.3073 43.15 32.7213L44.423 33.994C44.8367 34.4075 44.8367 35.0799 44.423 35.4934L44.3809 35.5358C44.734 36.1342 45.0027 36.7739 45.1818 37.4437H45.2313C45.8161 37.4437 46.292 37.9196 46.292 38.5041V40.3041C46.292 40.8887 45.8161 41.3643 45.2313 41.3643H45.2018C45.0277 42.0438 44.7618 42.6931 44.4091 43.3008L44.423 43.3147C44.8367 43.7281 44.8367 44.4005 44.423 44.814L43.15 46.0868C42.7365 46.4998 42.0633 46.5007 41.6499 46.0868L41.6463 46.0832C41.0361 46.443 40.3831 46.7151 39.6984 46.8942V46.8944C39.6986 47.4792 39.2227 47.9548 38.6379 47.9548ZM33.7763 45.2829C33.8418 45.2829 33.9083 45.3013 33.967 45.3387C34.656 45.7798 35.4096 46.0936 36.207 46.2715C36.3687 46.3073 36.4837 46.451 36.4837 46.6164V46.8946C36.4837 47.0895 36.6423 47.248 36.8373 47.248H38.6381C38.8331 47.248 38.9917 47.0895 38.9917 46.8946V46.6164C38.9917 46.451 39.1065 46.3073 39.2684 46.2715C40.0659 46.0936 40.8194 45.7798 41.5089 45.3387C41.6489 45.2492 41.8325 45.269 41.9495 45.3863L42.1503 45.5868C42.2882 45.7242 42.5121 45.7244 42.6505 45.5868L43.9236 44.3141C44.0615 44.1763 44.0615 43.952 43.9236 43.8141L43.7138 43.6044C43.5971 43.4878 43.5766 43.3057 43.6645 43.1662C44.098 42.4787 44.4051 41.7283 44.5774 40.9358C44.6128 40.7735 44.7566 40.6573 44.923 40.6573H45.232C45.427 40.6573 45.5856 40.4987 45.5856 40.3039V38.5039C45.5856 38.3088 45.427 38.1503 45.232 38.1503H44.906C44.7413 38.1503 44.5979 38.0365 44.5614 37.8755C44.3823 37.0926 44.0709 36.3517 43.6362 35.6736C43.5464 35.5337 43.5665 35.3504 43.6838 35.233L43.9236 34.9934C44.0615 34.8556 44.0615 34.6313 43.9236 34.4935L42.6505 33.2208C42.5121 33.0832 42.2882 33.0832 42.1503 33.2208L41.9014 33.4696C41.7849 33.5862 41.6025 33.6062 41.4629 33.5188C40.7857 33.0919 40.0472 32.7877 39.2684 32.6143C39.1067 32.5785 38.9917 32.435 38.9917 32.2694V31.9132C38.9917 31.7183 38.8331 31.5598 38.6381 31.5598H36.8373C36.6423 31.5598 36.4837 31.7183 36.4837 31.9132V32.2694C36.4837 32.4291 36.3765 32.5693 36.2221 32.6105C35.7848 32.7283 34.6689 33.1053 34.0127 33.5186C33.8732 33.606 33.6907 33.5859 33.5743 33.4693L33.3254 33.2205C33.192 33.0872 32.9586 33.0874 32.8252 33.2205L31.5521 34.4932C31.4142 34.6311 31.4142 34.8554 31.5521 34.9932L31.7918 35.2328C31.9092 35.3501 31.9292 35.5334 31.8394 35.6731C31.405 36.3514 31.0936 37.0922 30.9143 37.8755C30.8775 38.0362 30.7344 38.15 30.5696 38.15H30.2439C30.0487 38.15 29.8901 38.3086 29.8901 38.5037V40.3037C29.8901 40.4985 30.0487 40.6571 30.2439 40.6571H30.5527C30.7191 40.6571 30.8626 40.773 30.8982 40.9355C31.0705 41.7279 31.3777 42.4785 31.8111 43.166C31.8991 43.3057 31.8786 43.4876 31.7619 43.6042L31.5521 43.8139C31.4142 43.9517 31.4142 44.176 31.5521 44.3138L32.8252 45.5866C32.9586 45.7199 33.1922 45.7202 33.3251 45.5866L33.5267 45.3858C33.5943 45.3182 33.6848 45.2829 33.7763 45.2829ZM37.7375 43.4327C35.5152 43.4327 33.707 41.6254 33.707 39.4041C33.707 37.1829 35.5152 35.3756 37.7375 35.3756C39.9598 35.3756 41.7677 37.1829 41.7677 39.4041C41.7677 41.6254 39.9598 43.4327 37.7375 43.4327ZM37.7375 36.0824C35.905 36.0824 34.4141 37.5723 34.4141 39.4041C34.4141 41.2359 35.9048 42.7259 37.7375 42.7259C39.5697 42.7259 41.0606 41.2359 41.0606 39.4041C41.0606 37.5723 39.5699 36.0824 37.7375 36.0824Z" fill="black"/>
<path d="M31.1642 1.23669C34.0281 1.29795 36.7695 1.91287 39.2845 2.97308L38.5915 3.6634C38.5232 3.73172 38.4666 3.80711 38.4218 3.88722C36.2061 2.61497 33.7594 1.70554 31.1642 1.23669Z" fill="white"/>
</svg>
